<svg width="20" height="36" viewBox="0 0 20 36" fill="none" xmlns="http://www.w3.org/2000/svg">
<path fill-rule="evenodd" clip-rule="evenodd" d="M8.29062 0C4.18484 0 0.856445 3.32839 0.856445 7.43417V16.305C0.856445 19.224 2.53877 21.75 4.98673 22.9665V28.1746C4.98673 32.2804 8.31512 35.6088 12.4209 35.6088C16.5267 35.6088 19.8551 32.2804 19.8551 28.1746V19.3038C19.8551 16.3848 18.1727 13.8587 15.7248 12.6423V7.43417C15.7248 3.32839 12.3964 0 8.29062 0ZM15.7248 12.6423C14.7295 12.1477 13.6077 11.8696 12.4209 11.8696C8.31512 11.8696 4.98673 15.198 4.98673 19.3038V22.9665C5.982 23.461 7.10383 23.7391 8.29062 23.7391C12.3964 23.7391 15.7248 20.4107 15.7248 16.305V12.6423Z" fill="#4B70DF"/>
</svg>
